<svg xmlns="http://www.w3.org/2000/svg" aria-hidden="true" style="position:absolute;width:0;height:0;overflow:hidden">
    <defs>
        <symbol id="icon-popcorn" viewBox="0 0 32 32">
            <path d="M15.5 11.5c0-0.276-0.224-0.5-0.5-0.5s-0.5 0.224-0.5 0.5c0 0.276 0.224 0.5 0.5 0.5s0.5-0.224 0.5-0.5z"></path>
            <path d="M23.5 11.5c0-0.276-0.224-0.5-0.5-0.5s-0.5 0.224-0.5 0.5c0 0.276 0.224 0.5 0.5 0.5s0.5-0.224 0.5-0.5z"></path>
            <path d="M27.5 11.5c0-0.276-0.224-0.5-0.5-0.5s-0.5 0.224-0.5 0.5c0 0.276 0.224 0.5 0.5 0.5s0.5-0.224 0.5-0.5z"></path>
            <path d="M19.5 11.5c0-0.276-0.224-0.5-0.5-0.5s-0.5 0.224-0.5 0.5c0 0.276 0.224 0.5 0.5 0.5s0.5-0.224 0.5-0.5z"></path>
            <path d="M9.5 10.5c-0.276 0-0.5 0.224-0.5 0.5 0 0.276 0.224 0.5 0.5 0.5s0.5-0.224 0.5-0.5c0-0.276-0.224-0.5-0.5-0.5z"></path>
            <path d="M5.5 10.5c-0.276 0-0.5 0.224-0.5 0.5 0 0.276 0.224 0.5 0.5 0.5s0.5-0.224 0.5-0.5c0-0.276-0.224-0.5-0.5-0.5z"></path>
            <path d="M28.109 9.596c-0.247-0.494-0.757-0.809-1.309-0.809-0.016 0-0.031 0-0.047 0.001l0.002-0c-0.466 0.015-0.876 0.247-1.13 0.596-0.263-0.351-0.674-0.577-1.138-0.591l-0.003-0c-0.466 0.015-0.876 0.247-1.13 0.596-0.263-0.351-0.674-0.577-1.138-0.591l-0.003-0c-0.466 0.015-0.876 0.247-1.13 0.596-0.263-0.351-0.674-0.577-1.138-0.591l-0.003-0c-0.466 0.015-0.876 0.247-1.13 0.596-0.263-0.351-0.674-0.577-1.138-0.591l-0.003-0c-0.466 0.015-0.876 0.247-1.13 0.596-0.263-0.351-0.674-0.577-1.138-0.591l-0.003-0c-0.466 0.015-0.876 0.247-1.13 0.596-0.263-0.351-0.674-0.577-1.138-0.591l-0.003-0c-0.466 0.015-0.876 0.247-1.13 0.596-0.263-0.351-0.674-0.577-1.138-0.591l-0.003-0c-0.552 0-1.062 0.315-1.309 0.809-0.084 0.168-0.128 0.356-0.128 0.554 0 0.126 0.019 0.247 0.053 0.362l-0.002-0.009c0.058 0.195 0.157 0.363 0.287 0.502l0 0 11.306 19.634c0.241 0.417 0.684 0.693 1.191 0.693s0.95-0.276 1.189-0.689l0.004-0.007 11.305-19.633c0.13-0.139 0.229-0.307 0.285-0.493l0.002-0.009c0.032-0.106 0.051-0.227 0.051-0.353 0-0.198-0.044-0.386-0.123-0.554l0.003 0.008zM26.717 10.421c-0.034 0.037-0.063 0.079-0.085 0.125l-0.002 0.004-11.306 19.633c-0.039 0.068-0.112 0.113-0.195 0.113s-0.156-0.045-0.194-0.111l-0.001-0.002-11.307-19.633c-0.024-0.050-0.053-0.092-0.087-0.129l-0.001-0.001c-0.006-0.019-0.009-0.040-0.009-0.062 0-0.032 0.007-0.062 0.020-0.089l-0.001 0.001c0.041-0.082 0.124-0.137 0.219-0.137 0.002 0 0.004 0 0.006 0h-0c0.002-0 0.004-0 0.006-0 0.095 0 0.178 0.055 0.218 0.135l0.001 0.001c0.012 0.026 0.019 0.056 0.019 0.088s-0.007 0.062-0.019 0.088l0.001-0.001c-0.005 0.015-0.008 0.032-0.008 0.050 0 0.088 0.072 0.16 0.16 0.16 0.070 0 0.13-0.045 0.152-0.108l0-0.001c0.067-0.182 0.187-0.334 0.342-0.441l0.003-0.002c0.115-0.080 0.258-0.128 0.412-0.128 0.235 0 0.445 0.113 0.576 0.288l0.001 0.002c0.024 0.050 0.053 0.092 0.087 0.129l0.001 0.001c0.006 0.019 0.009 0.040 0.009 0.062 0 0.088-0.072 0.16-0.16 0.16-0.018 0-0.035-0.003-0.051-0.008l0.001 0c-0.026-0.012-0.056-0.019-0.088-0.019s-0.062 0.007-0.088 0.019l0.001-0c-0.015 0.005-0.032 0.008-0.050 0.008-0.088 0-0.16-0.072-0.16-0.16 0-0.022 0.004-0.043 0.012-0.062l-0 0.001c0.024-0.050 0.053-0.092 0.087-0.129l0.001-0.001c0.006-0.019 0.009-0.040 0.009-0.062 0-0.032-0.007-0.062-0.020-0.089l0.001 0.001c-0.041-0.082-0.124-0.137-0.219-0.137-0.002 0-0.004 0-0.006 0h0c-0.002-0-0.004-0-0.006-0-0.095 0-0.178 0.055-0.218 0.135l-0.001 0.001c-0.012 0.026-0.019 0.056-0.019 0.088s0.007 0.062 0.019 0.088l-0.001-0.001c0.024 0.050 0.053 0.092 0.087 0.129l0.001 0.001c0.006 0.019 0.009 0.040 0.009 0.062 0 0.088-0.072 0.16-0.16 0.16-0.018 0-0.035-0.003-0.051-0.008l0.001 0c-0.026-0.012-0.056-0.019-0.088-0.019s-0.062 0.007-0.088 0.019l0.001-0c-0.015 0.005-0.032 0.008-0.050 0.008-0.088 0-0.16-0.072-0.16-0.16 0-0.022 0.004-0.043 0.012-0.062l-0 0.001c0.024-0.050 0.053-0.092 0.087-0.129l0.001-0.001c0.006-0.019 0.009-0.040 0.009-0.062 0-0.032-0.007-0.062-0.020-0.089l0.001 0.001c-0.041-0.082-0.124-0.137-0.219-0.137-0.002 0-0.004 0-0.006 0h0c-0.002-0-0.004-0-0.006-0-0.095 0-0.178 0.055-0.218 0.135l-0.001 0.001c-0.012 0.026-0.019 0.056-0.019 0.088s0.007 0.062 0.019 0.088l-0.001-0.001c0.024 0.050 0.053 0.092 0.087 0.129l0.001 0.001c0.006 0.019 0.009 0.040 0.009 0.062 0 0.088-0.072 0.16-0.16 0.16-0.018 0-0.035-0.003-0.051-0.008l0.001 0c-0.026-0.012-0.056-0.019-0.088-0.019s-0.062 0.007-0.088 0.019l0.001-0c-0.015 0.005-0.032 0.008-0.050 0.008-0.088 0-0.16-0.072-0.16-0.16 0-0.022 0.004-0.043 0.012-0.062l-0 0.001c0.024-0.050 0.053-0.092 0.087-0.129l0.001-0.001c0.006-0.019 0.009-0.040 0.009-0.062 0-0.032-0.007-0.062-0.020-0.089l0.001 0.001c-0.041-0.082-0.124-0.137-0.219-0.137-0.002 0-0.004 0-0.006 0h0c-0.002-0-0.004-0-0.006-0-0.095 0-0.178 0.055-0.218 0.135l-0.001 0.001c-0.012 0.026-0.019 0.056-0.019 0.088s0.007 0.062 0.019 0.088l-0.001-0.001c0.024 0.050 0.053 0.092 0.087 0.129l0.001 0.001c0.006 0.019 0.009 0.040 0.009 0.062 0 0.088-0.072 0.16-0.16 0.16-0.018 0-0.035-0.003-0.051-0.008l0.001 0c-0.026-0.012-0.056-0.019-0.088-0.019s-0.062 0.007-0.088 0.019l0.001-0c-0.015 0.005-0.032 0.008-0.050 0.008-0.088 0-0.16-0.072-0.16-0.16 0-0.022 0.004-0.043 0.012-0.062l-0 0.001c0.024-0.050 0.053-0.092 0.087-0.129l0.001-0.001c0.006-0.019 0.009-0.040 0.009-0.062 0-0.032-0.007-0.062-0.020-0.089l0.001 0.001c-0.041-0.082-0.124-0.137-0.219-0.137-0.002 0-0.004 0-0.006 0h0c-0.002-0-0.004-0-0.006-0-0.095 0-0.178 0.055-0.218 0.135l-0.001 0.001c-0.012 0.026-0.019 0.056-0.019 0.088s0.007 0.062 0.019 0.088l-0.001-0.001c0.024 0.050 0.053 0.092 0.087 0.129l0.001 0.001c0.006 0.019 0.009 0.040 0.009 0.062 0 0.088-0.072 0.16-0.16 0.16-0.018 0-0.035-0.003-0.051-0.008l0.001 0c-0.026-0.012-0.056-0.019-0.088-0.019s-0.062 0.007-0.088 0.019l0.001-0c-0.015 0.005-0.032 0.008-0.050 0.008-0.088 0-0.16-0.072-0.16-0.16 0-0.022 0.004-0.043 0.012-0.062l-0 0.001c0.024-0.050 0.053-0.092 0.087-0.129l0.001-0.001c0.006-0.019 0.009-0.040 0.009-0.062 0-0.032-0.007-0.062-0.020-0.089l0.001 0.001c-0.041-0.082-0.124-0.137-0.219-0.137-0.002 0-0.004 0-0.006 0h0c-0.002-0-0.004-0-0.006-0-0.095 0-0.178 0.055-0.218 0.135l-0.001 0.001c-0.012 0.026-0.019 0.056-0.019 0.088s0.007 0.062 0.019 0.088l-0.001-0.001c0.024 0.050 0.053 0.092 0.087 0.129l0.001 0.001c0.006 0.019 0.009 0.040 0.009 0.062 0 0.088-0.072 0.16-0.16 0.16-0.018 0-0.035-0.003-0.051-0.008l0.001 0c-0.026-0.012-0.056-0.019-0.088-0.019s-0.062 0.007-0.088 0.019l0.001-0c-0.015 0.005-0.032 0.008-0.050 0.008-0.088 0-0.16-0.072-0.16-0.16 0-0.022 0.004-0.043 0.012-0.062l-0 0.001c0.024-0.050 0.053-0.092 0.087-0.129l0.001-0.001c0.006-0.019 0.009-0.040 0.009-0.062 0-0.032-0.007-0.062-0.020-0.089l0.001 0.001c-0.041-0.082-0.124-0.137-0.219-0.137-0.002 0-0.004 0-0.006 0h0c-0.002-0-0.004-0-0.006-0-0.095 0-0.178 0.055-0.218 0.135l-0.001 0.001c-0.012 0.026-0.019 0.056-0.019 0.088s0.007 0.062 0.019 0.088l-0.001-0.001c-0.024 0.050-0.053 0.092-0.087 0.129l-0.001 0.001c-0.006 0.019-0.009 0.040-0.009 0.062 0 0.088 0.072 0.16 0.16 0.16 0.018 0 0.035-0.003 0.051-0.008l-0.001 0c0.026-0.012 0.056-0.019 0.088-0.019s0.062 0.007 0.088 0.019l-0.001-0c0.015 0.005 0.032 0.008 0.050 0.008 0.088 0 0.16-0.072 0.16-0.16 0-0.022-0.004-0.043-0.012-0.062l0 0.001c-0.024-0.050-0.053-0.092-0.087-0.129l-0.001-0.001c-0.006-0.019-0.009-0.040-0.009-0.062 0-0.032 0.007-0.062 0.020-0.089l-0.001 0.001c0.041-0.082 0.124-0.137 0.219-0.137 0.002 0 0.004 0 0.006 0h-0c0.002-0 0.004-0 0.006-0 0.095 0 0.178 0.055 0.218 0.135l0.001 0.001c0.012 0.026 0.019 0.056 0.019 0.088s-0.007 0.062-0.019 0.088l0.001-0.001c-0.024 0.050-0.053 0.092-0.087 0.129l-0.001 0.001c-0.006 0.019-0.009 0.040-0.009 0.062 0 0.088 0.072 0.16 0.16 0.16 0.018 0 0.035-0.003 0.051-0.008l-0.001 0c0.026-0.012 0.056-0.019 0.088-0.019s0.062 0.007 0.088 0.019l-0.001-0c0.015 0.005 0.032 0.008 0.050 0.008 0.088 0 0.16-0.072 0.16-0.16 0-0.022-0.004-0.043-0.012-0.062l0 0.001c-0.024-0.050-0.053-0.092-0.087-0.129l-0.001-0.001c-0.006-0.019-0.009-0.040-0.009-0.062 0-0.032 0.007-0.062 0.020-0.089l-0.001 0.001c0.041-0.082 0.124-0.137 0.219-0.137 0.002 0 0.004 0 0.006 0h-0c0.002-0 0.004-0 0.006-0 0.095 0 0.178 0.055 0.218 0.135l0.001 0.001c0.012 0.026 0.019 0.056 0.019 0.088s-0.007 0.062-0.019 0.088l0.001-0.001c-0.024 0.050-0.053 0.092-0.087 0.129l-0.001 0.001c-0.006 0.019-0.009 0.040-0.009 0.062 0 0.088 0.072 0.16 0.16 0.16 0.018 0 0.035-0.003 0.051-0.008l-0.001 0c0.026-0.012 0.056-0.019 0.088-0.019s0.062 0.007 0.088 0.019l-0.001-0c0.015 0.005 0.032 0.008 0.050 0.008 0.088 0 0.16-0.072 0.16-0.16 0-0.022-0.004-0.043-0.012-0.062l0 0.001c-0.024-0.050-0.053-0.092-0.087-0.129l-0.001-0.001c-0.006-0.019-0.009-0.040-0.009-0.062 0-0.032 0.007-0.062 0.020-0.089l-0.001 0.001c0.041-0.082 0.124-0.137 0.219-0.137 0.002 0 0.004 0 0.006 0h-0c0.002-0 0.004-0 0.006-0 0.095 0 0.178 0.055 0.218 0.135l0.001 0.001c0.012 0.026 0.019 0.056 0.019 0.088s-0.007 0.062-0.019 0.088l0.001-0.001c-0.024 0.050-0.053 0.092-0.087 0.129l-0.001 0.001c-0.006 0.019-0.009 0.040-0.009 0.062 0 0.088 0.072 0.16 0.16 0.16 0.018 0 0.035-0.003 0.051-0.008l-0.001 0c0.026-0.012 0.056-0.019 0.088-0.019s0.062 0.007 0.088 0.019l-0.001-0c0.015 0.005 0.032 0.008 0.050 0.008 0.088 0 0.16-0.072 0.16-0.16 0-0.022-0.004-0.043-0.012-0.062l0 0.001c-0.024-0.050-0.053-0.092-0.087-0.129l-0.001-0.001c-0.006-0.019-0.009-0.040-0.009-0.062 0-0.032 0.007-0.062 0.020-0.089l-0.001 0.001c0.041-0.082 0.124-0.137 0.219-0.137 0.002 0 0.004 0 0.006 0h-0c0.002-0 0.004-0 0.006-0 0.095 0 0.178 0.055 0.218 0.135l0.001 0.001c0.012 0.026 0.019 0.056 0.019 0.088s-0.007 0.062-0.019 0.088l0.001-0.001z"></path>
        </symbol>
        <symbol id="icon-menu" viewBox="0 0 32 32">
            <path d="M4 7h24v2H4V7zm0 8h24v2H4v-2zm0 8h24v2H4v-2z"/>
        </symbol>
        <symbol id="icon-close" viewBox="0 0 32 32">
            <path d="M25.333 8.547l-1.88-1.88-7.453 7.453-7.453-7.453-1.88 1.88 7.453 7.453-7.453 7.453 1.88 1.88 7.453-7.453 7.453 7.453 1.88-1.88-7.453-7.453z"/>
        </symbol>
    </defs>
</svg>
